<svg width="76" height="112" viewBox="0 0 76 112" fill="none" xmlns="http://www.w3.org/2000/svg">
<path d="M75.5613 35.8472C75.5613 31.2112 74.5637 26.6472 72.5965 22.2813C70.6902 18.0512 67.976 14.2241 64.5289 10.9075C61.0532 7.56243 57.0307 4.92889 52.5739 3.07936C47.9107 1.14241 42.9837 0.161626 37.9303 0.161626C32.8769 0.161626 27.9499 1.1432 23.2867 3.07853C18.8297 4.92788 14.8074 7.5616 11.3317 10.9067C7.88457 14.2239 5.17054 18.0512 3.26408 22.2804C1.2969 26.6464 0.299301 31.2103 0.299301 35.8464H0.555687V35.8587L22.1488 58.9939H18.9548C14.7394 58.9939 11.3104 62.4103 11.3104 66.61V103.999C11.3104 108.198 14.7394 111.615 18.9548 111.615H56.4825C60.6978 111.615 64.1269 108.198 64.1269 103.999V66.61C64.1269 62.4103 60.6978 58.9939 56.4825 58.9939H53.0608L75.4996 35.8461H75.5612L75.5613 35.8472ZM34.2787 33.1464L35.6436 32.8615C36.2746 32.7297 37.0109 32.6601 37.7734 32.6601C38.4776 32.6601 39.1662 32.7199 39.7653 32.8345L41.1096 33.0907V33.0826C43.168 33.6073 45.0784 34.4612 46.5189 35.8471L38.9625 58.9949H36.024L29.0856 35.8848C30.4808 34.4988 32.2622 33.7039 34.2787 33.1464ZM6.90914 35.8717C8.80564 33.5517 11.4007 32.6658 15.408 32.6658C18.6448 32.6658 21.7385 33.8365 23.934 35.8839L30.99 58.994H28.1535L6.90914 35.8717ZM57.1782 66.6105V103.999C57.1782 104.381 56.8668 104.692 56.483 104.692H18.9553C18.5724 104.692 18.2601 104.381 18.2601 103.999L18.261 66.6105C18.261 66.229 18.5724 65.9179 18.9561 65.9179H56.4838C56.8659 65.9187 57.1782 66.229 57.1782 66.6105ZM46.5781 58.9944H43.7349L51.5501 35.8717C53.7571 33.7179 56.8978 32.6667 60.2315 32.6667C64.4715 32.6667 66.6169 33.3429 68.6063 35.8464L46.5781 58.9944Z" fill="url(#paint0_linear_2_2339)"/>
<path d="M33.6077 96.7043H42.1008V89.3486H49.4848V80.8852H42.1008V73.5303H33.6077V80.8852H26.2246V89.3486H33.6077V96.7043Z" fill="url(#paint1_linear_2_2339)"/>
<defs>
<linearGradient id="paint0_linear_2_2339" x1="-13.1944" y1="-3.16981" x2="63.4378" y2="110.345" gradientUnits="userSpaceOnUse">
<stop stop-color="#0592C5"/>
<stop offset="1" stop-color="#0AD2FF"/>
</linearGradient>
<linearGradient id="paint1_linear_2_2339" x1="22.0542" y1="72.8376" x2="34.9911" y2="101.321" gradientUnits="userSpaceOnUse">
<stop stop-color="#0592C5"/>
<stop offset="1" stop-color="#0AD2FF"/>
</linearGradient>
</defs>
</svg>
