<?xml version="1.0" encoding="iso-8859-1"?><!DOCTYPE svg PUBLIC "-//W3C//DTD SVG 1.1//EN" "http://www.w3.org/Graphics/SVG/1.1/DTD/svg11.dtd"><svg viewBox="0 0 512 512" xmlns="http://www.w3.org/2000/svg" xmlns:xlink="http://www.w3.org/1999/xlink"><style>:root>svg{display:none}:root>svg:target{display:block}</style><svg viewBox="0 0 106.048 106.048" id="email" xmlns="http://www.w3.org/2000/svg"><path d="M84.838 0H21.209C9.543 0 0 9.543 0 21.209v63.629c0 11.666 9.543 21.21 21.209 21.21h63.628c11.667 0 21.21-9.544 21.21-21.21V21.209C106.048 9.543 96.505 0 84.838 0zm7.954 91.477H13.256V44.255l39.773-29.694 39.763 29.694v47.222zM53.029 62.21l34.729 26.88h-69.47l34.741-26.88zM42.025 35.75c-1.175 2.141-1.752 4.453-1.752 6.928 0 2.26.512 4.35 1.543 6.268 1.033 1.914 2.602 3.369 4.728 4.347 2.11.984 4.625 1.471 7.542 1.471 2.998 0 5.551-.58 7.637-1.74 1.823-1.022 3.18-2.423 4.061-4.215h-2.812c-.932 1.181-2.148 2.051-3.671 2.641-1.522.588-3.335.881-5.432.881-2.186 0-4.127-.353-5.828-1.046-1.696-.705-3.011-1.812-3.961-3.346-.927-1.522-1.406-3.218-1.406-5.074 0-1.913.419-3.759 1.258-5.52.852-1.771 2.1-3.148 3.759-4.109 1.665-.986 3.685-1.473 6.079-1.473 2.812 0 5.007.735 6.581 2.183 1.569 1.471 2.352 3.283 2.352 5.448 0 1.214-.285 2.379-.839 3.508-.555 1.119-1.279 2.032-2.181 2.695-.668.521-1.211.769-1.646.769a.465.465 0 01-.357-.165c-.108-.111-.149-.27-.149-.497 0-.176.062-.557.186-1.163l1.999-9.486h-3.49l-.336 1.471c-.751-1.204-1.9-1.805-3.475-1.805-2.203 0-4.008 1.046-5.419 3.13-1.165 1.707-1.743 3.594-1.743 5.672 0 1.665.487 3.012 1.447 4.029.963 1.004 2.172 1.512 3.643 1.512 1.356 0 2.561-.508 3.599-1.512.119.5.373.87.74 1.131.373.259.922.381 1.657.381 2.724 0 4.939-1.149 6.68-3.436 1.388-1.825 2.082-3.855 2.082-6.098a10.44 10.44 0 00-1.367-5.217c-.922-1.598-2.237-2.817-3.967-3.687-1.729-.857-3.702-1.292-5.924-1.292-2.62 0-4.947.538-6.98 1.615-2.062 1.062-3.67 2.667-4.838 4.801zm12.624 7.332c-.331 1.033-.74 1.822-1.206 2.358-.326.373-.663.652-.997.828-.44.249-.906.371-1.411.371-.673 0-1.229-.269-1.69-.795-.45-.531-.673-1.346-.673-2.465 0-.839.158-1.804.486-2.892.329-1.085.811-1.913 1.453-2.506.646-.591 1.346-.88 2.1-.88.707 0 1.286.269 1.752.805.467.531.694 1.294.694 2.291 0 .896-.171 1.862-.508 2.885zm-9.245 21.789L16.06 87.582V45.191l29.344 19.68zm15.242 0l29.339-19.68v42.391L60.646 64.871z" fill="#010002"/></svg><svg viewBox="0 0 438.536 438.536" id="github" xmlns="http://www.w3.org/2000/svg"><path d="M158.173 352.599c-3.049.568-4.381 1.999-3.999 4.281.38 2.283 2.093 3.046 5.138 2.283 3.049-.76 4.38-2.095 3.997-3.997-.378-2.092-2.091-2.95-5.136-2.567zM141.898 354.885c-3.046 0-4.568 1.041-4.568 3.139 0 2.474 1.619 3.518 4.853 3.138 3.046 0 4.57-1.047 4.57-3.138 0-2.471-1.619-3.522-4.855-3.139zM119.629 354.022c-.76 2.095.478 3.519 3.711 4.284 2.855 1.137 4.664.568 5.424-1.714.572-2.091-.666-3.61-3.711-4.568-2.856-.759-4.663-.102-5.424 1.998z"/><path d="M414.41 24.123C398.326 8.042 378.964 0 356.309 0H82.225C59.577 0 40.208 8.042 24.123 24.123 8.042 40.207 0 59.576 0 82.225v274.088c0 22.65 8.042 42.017 24.123 58.098 16.084 16.084 35.454 24.126 58.102 24.126h63.953c4.184 0 7.327-.144 9.42-.424 2.092-.288 4.184-1.526 6.279-3.717 2.096-2.187 3.14-5.376 3.14-9.562 0-.568-.05-7.046-.144-19.417-.097-12.375-.144-22.176-.144-29.41l-6.567 1.143c-4.187.76-9.469 1.095-15.846.999-6.374-.096-12.99-.76-19.841-1.998-6.855-1.239-13.229-4.093-19.13-8.562-5.898-4.477-10.085-10.328-12.56-17.559l-2.856-6.571c-1.903-4.373-4.899-9.229-8.992-14.554-4.093-5.332-8.232-8.949-12.419-10.852l-1.999-1.428c-1.331-.951-2.568-2.098-3.711-3.429-1.141-1.335-1.997-2.669-2.568-3.997-.571-1.335-.097-2.43 1.427-3.289 1.524-.855 4.281-1.279 8.28-1.279l5.708.855c3.808.76 8.516 3.042 14.134 6.851 5.614 3.806 10.229 8.754 13.846 14.843 4.38 7.806 9.657 13.75 15.846 17.843 6.184 4.097 12.419 6.143 18.699 6.143s11.704-.476 16.274-1.424c4.565-.954 8.848-2.385 12.847-4.288 1.713-12.751 6.377-22.559 13.988-29.41-10.848-1.143-20.602-2.854-29.265-5.14-8.658-2.286-17.605-5.995-26.835-11.136-9.234-5.14-16.894-11.512-22.985-19.13-6.09-7.618-11.088-17.61-14.987-29.978-3.901-12.375-5.852-26.652-5.852-42.829 0-23.029 7.521-42.637 22.557-58.814-7.044-17.32-6.379-36.732 1.997-58.242 5.52-1.714 13.706-.428 24.554 3.855 10.85 4.286 18.794 7.951 23.84 10.992 5.046 3.042 9.089 5.614 12.135 7.71 17.705-4.949 35.976-7.423 54.818-7.423 18.841 0 37.115 2.474 54.821 7.423l10.849-6.852c7.426-4.57 16.18-8.757 26.269-12.562 10.088-3.806 17.795-4.854 23.127-3.14 8.562 21.51 9.328 40.922 2.279 58.241 15.036 16.179 22.559 35.786 22.559 58.815 0 16.18-1.951 30.505-5.852 42.969-3.898 12.467-8.939 22.463-15.13 29.981-6.184 7.519-13.894 13.843-23.124 18.986-9.232 5.137-18.178 8.853-26.84 11.132-8.661 2.286-18.414 4.004-29.263 5.147 9.891 8.562 14.839 22.072 14.839 40.538v68.238c0 3.237.472 5.852 1.424 7.851.958 1.998 2.478 3.374 4.571 4.141 2.102.76 3.949 1.235 5.571 1.424 1.622.191 3.949.287 6.995.287h63.953c22.648 0 42.018-8.042 58.095-24.126 16.084-16.084 24.126-35.454 24.126-58.102V82.225c-.002-22.649-8.044-42.021-24.125-58.102z"/><path d="M86.793 319.195c-1.331.948-1.141 2.471.572 4.565 1.906 1.902 3.427 2.189 4.57.855 1.331-.948 1.141-2.471-.575-4.569-1.902-1.71-3.424-1.997-4.567-.851zM77.374 312.057c-.57 1.335.096 2.478 1.999 3.426 1.521.955 2.762.767 3.711-.568.57-1.335-.096-2.478-1.999-3.433-1.903-.572-3.14-.38-3.711.575zM95.646 330.331c-1.715.948-1.715 2.666 0 5.137 1.713 2.478 3.328 3.142 4.853 1.998 1.714-1.334 1.714-3.142 0-5.427-1.521-2.468-3.14-3.046-4.853-1.708zM105.641 343.174c-1.714 1.526-1.336 3.327 1.142 5.428 2.281 2.279 4.185 2.566 5.708.849 1.524-1.519 1.143-3.326-1.142-5.42-2.281-2.28-4.185-2.568-5.708-.857z"/></svg><svg viewBox="0 0 478.165 478.265" id="linked-in" xmlns="http://www.w3.org/2000/svg"><path d="M442.78 0H35.424C15.859 0 0 15.401 0 34.288v409.688c0 18.828 15.859 34.189 35.424 34.189h407.337c19.585 0 35.404-15.361 35.404-34.189V34.288C478.165 15.401 462.345 0 442.78 0zM145.003 400.244H72.781V184.412h72.223v215.832zm-36.161-245.279h-.478c-24.247 0-39.927-16.696-39.927-37.337 0-21.219 16.158-37.337 40.863-37.337 24.725 0 39.927 16.118 40.385 37.337.02 20.641-15.64 37.337-40.843 37.337zm296.542 245.279h-72.083V284.807c0-29.009-10.599-48.952-36.739-48.952-20.063 0-31.798 13.428-36.958 26.458-1.893 4.423-2.391 10.898-2.391 17.393v120.537H184.95s.916-195.629 0-215.832h72.263v30.603c9.484-14.684 26.658-35.703 65.01-35.703 47.577 0 83.161 30.862 83.161 97.167v123.766zm-148.61-184.532c.06-.219.159-.438.418-.677v.677h-.418z"/></svg><svg id="phone" version="1.1" viewBox="0 0 75 75" xml:space="preserve" xmlns="http://www.w3.org/2000/svg"><style>.dst0{fill:#000}.dst1{fill:#fff}</style><path class="dst0" d="M62.5 73.5h-50c-6.1 0-11-4.9-11-11v-50c0-6.1 4.9-11 11-11h50c6.1 0 11 4.9 11 11v50c0 6.1-4.9 11-11 11z"/><path class="dst1" d="M41.5 26.5c-1.1 1.1-1.1 2.9 0 4l3.3 3.3c1.4 1.4 0 5-3 8s-6.6 4.4-8 3l-3.3-3.3c-1.1-1.1-2.9-1.1-4 0l-7.9 7.9c-1.1 1.1-1.1 2.9 0 4l2.1 2.1c4.4 4.4 15.8.1 25.4-9.5 9.6-9.6 13.9-21 9.5-25.4l-2.1-2.1c-1.1-1.1-2.9-1.1-4 0l-8 8z"/></svg><svg viewBox="0 0 64 64" id="skype" xmlns="http://www.w3.org/2000/svg"><defs><style>.ecls-1{fill:#000}.ecls-2{fill:#fff}.ecls-3{fill:#000}</style></defs><g data-name="17-skype" id="e_17-skype"><rect class="ecls-1" height="64" rx="11.2" ry="11.2" width="64"/><path class="ecls-2" d="M53.11 36.35a22.06 22.06 0 00-25.4-25.49A12.34 12.34 0 0010.9 27.64a22 22 0 0025.4 25.5 12.35 12.35 0 0016.81-16.79z"/><path class="ecls-3" d="M32.05 46a11.54 11.54 0 01-9.79-5.53 2.4 2.4 0 114.19-2.34 6.72 6.72 0 005.6 3.07c3.61 0 6.4-1.45 6.4-2.7 0-1.76-.51-3.42-6.74-4.33-8.27-1.2-9.16-5.76-9.16-7.67 0-7 5.17-8.5 9.5-8.5 8 0 10.31 5.12 10.4 5.34a2.4 2.4 0 01-4.37 2c-.1-.18-1.41-2.51-6-2.51s-4.7 2-4.7 3.7c0 2 3.86 2.75 5 2.92 3.25.48 10.85 1.58 10.85 9.08.02 4.36-4.69 7.47-11.18 7.47z"/></g></svg><svg aria-label="Telegram" viewBox="0 0 512 512" id="telegram" xmlns="http://www.w3.org/2000/svg"><rect width="512" height="512" rx="15%"/><path fill="#c8daea" d="M199 404c-11 0-10-4-13-14l-32-105 245-144"/><path fill="#a9c9dd" d="M199 404c7 0 11-4 16-8l45-43-56-34"/><path fill="#f6fbfe" d="M204 319l135 99c14 9 26 4 30-14l55-258c5-22-9-32-24-25L79 245c-21 8-21 21-4 26l83 26 190-121c9-5 17-3 11 4"/></svg></svg>